<?xml version="1.0" encoding="UTF-8" standalone="no"?>
<!-- Created with Inkscape (http://www.inkscape.org/) -->

<svg
   width="48"
   height="48"
   viewBox="0 0 48 48"
   version="1.1"
   id="svg1"
   inkscape:version="1.3.2 (091e20e, 2023-11-25)"
   sodipodi:docname="logo_small.svg"
   xmlns:inkscape="http://www.inkscape.org/namespaces/inkscape"
   xmlns:sodipodi="http://sodipodi.sourceforge.net/DTD/sodipodi-0.dtd"
   xmlns="http://www.w3.org/2000/svg"
   xmlns:svg="http://www.w3.org/2000/svg">
  <sodipodi:namedview
     id="namedview1"
     pagecolor="#ffffff"
     bordercolor="#000000"
     borderopacity="0.25"
     inkscape:showpageshadow="2"
     inkscape:pageopacity="0.0"
     inkscape:pagecheckerboard="0"
     inkscape:deskcolor="#d1d1d1"
     inkscape:document-units="px"
     inkscape:zoom="2.6314282"
     inkscape:cx="-18.431056"
     inkscape:cy="19.001088"
     inkscape:window-width="1312"
     inkscape:window-height="449"
     inkscape:window-x="0"
     inkscape:window-y="38"
     inkscape:window-maximized="0"
     inkscape:current-layer="layer1" />
  <defs
     id="defs1" />
  <g
     inkscape:label="Layer 1"
     inkscape:groupmode="layer"
     id="layer1">
    <path
       d="m 37.857032,22.005064 c 0.190494,1.322945 0.190494,2.666927 0,3.989872 C 36.810479,25.92014 36,25.04889 36,24 c 0,-1.04889 0.810479,-1.92014 1.857032,-1.994936 z"
       id="path1"
       style="fill:#ff9900;fill-opacity:1;stroke-width:0.0584341" />
    <circle
       cx="31.999609"
       cy="24"
       id="circle1"
       style="fill:#ff9900;fill-opacity:1;stroke-width:0.0584341"
       r="2.0001948" />
    <path
       d="m 46.400078,21 h -1.295481 c -0.75263,0 -1.403,-0.524153 -1.563109,-1.259252 -0.133813,-0.614726 -0.296844,-1.223023 -0.488508,-1.822556 -0.229061,-0.716985 0.07246,-1.495909 0.723997,-1.872224 l 1.121932,-0.648032 c 0.765485,-0.441762 1.02727,-1.42053 0.585508,-2.185431 L 44.08434,10.787495 C 43.642579,10.022011 42.66381,9.7602261 41.898909,10.201987 l -1.121932,0.648032 C 40.125439,11.226334 39.299767,11.09778 38.793728,10.540904 38.370082,10.075185 37.924815,9.6299182 37.459097,9.2062723 36.902805,8.7002342 36.77425,7.874562 37.149981,7.223023 L 37.798013,6.1010905 C 38.239775,5.3356058 37.977406,4.3574212 37.212505,3.9156609 L 34.787496,2.5155825 C 34.02201,2.0738221 33.043825,2.33619 32.602065,3.1010906 L 31.954032,4.223023 C 31.577718,4.8745621 30.798792,5.1760808 30.081808,4.9470205 29.482275,4.7553571 28.873977,4.5929099 28.259252,4.4585118 27.524152,4.2984027 27,3.6474487 27,2.8954031 V 1.5999225 C 27,0.71640092 26.2836,0 25.400078,0 H 22.599923 C 21.716401,0 21,0.71640092 21,1.5999225 v 1.2954806 c 0,0.7526296 -0.524153,1.4029996 -1.259252,1.5631087 -0.614725,0.133814 -1.223023,0.2968453 -1.822555,0.4885087 -0.716985,0.2290603 -1.49591,-0.072458 -1.872225,-0.7239975 L 15.397935,3.1010906 C 14.956175,2.3356059 13.977406,2.0738221 13.212505,2.5155825 L 10.787496,3.9156609 C 10.02201,4.3574212 9.7602263,5.3361899 10.201987,6.1010905 L 10.850019,7.223023 C 11.226335,7.874562 11.09778,8.7002342 10.540904,9.2062723 10.075185,9.6299182 9.6299184,10.075185 9.2062719,10.540904 8.7002338,11.097196 7.8745622,11.22575 7.2230231,10.850019 L 6.1010906,10.201987 C 5.3356059,9.7602261 4.3574212,10.022595 3.91566,10.787495 l -1.4000775,2.42501 C 2.0738213,13.97799 2.33619,14.956174 3.1010906,15.397936 l 1.1219325,0.648032 c 0.6515391,0.376315 0.9530578,1.155239 0.7239966,1.872224 C 4.7553562,18.517725 4.59291,19.126022 4.4585119,19.740748 4.2984028,20.475847 3.6474488,21 2.8954031,21 H 1.5999225 C 0.7164,21 0,21.716401 0,22.599922 v 2.800156 c 0,0.883521 0.7164,1.599921 1.5999225,1.599921 h 1.2954806 c 0.7526297,0 1.4029997,0.524154 1.5631088,1.259253 0.133814,0.614726 0.2968443,1.223023 0.4885078,1.822556 0.2290612,0.716985 -0.072458,1.495909 -0.7239966,1.872224 l -1.1219325,0.648032 c -0.7654847,0.441762 -1.0272694,1.42053 -0.5855081,2.185431 l 1.4000775,2.42501 c 0.4417612,0.765484 1.42053,1.027269 2.1854306,0.585508 L 7.2230231,37.14998 c 0.6515391,-0.376314 1.4772107,-0.24776 1.9832488,0.309116 0.4236465,0.465719 0.8689131,0.910986 1.3346321,1.334632 0.556291,0.506038 0.684846,1.33171 0.309115,1.983249 l -0.648032,1.121932 c -0.4417608,0.765485 -0.179393,1.74367 0.585509,2.18543 l 2.425009,1.400079 c 0.765485,0.44176 1.74367,0.179392 2.18543,-0.58551 l 0.648033,-1.121931 c 0.376315,-0.651539 1.15524,-0.953058 1.872225,-0.723998 0.599532,0.191664 1.20783,0.354111 1.822555,0.488509 C 20.475847,43.701597 21,44.352551 21,45.104597 v 1.295481 C 21,47.283599 21.716401,48 22.599923,48 h 2.800155 C 26.2836,48 27,47.283599 27,46.400078 v -1.295481 c 0,-0.75263 0.524152,-1.403 1.259252,-1.563109 0.614725,-0.133814 1.223023,-0.296845 1.822556,-0.488509 0.716984,-0.22906 1.49591,0.07246 1.872224,0.723998 l 0.648033,1.121931 c 0.44176,0.765486 1.42053,1.02727 2.185431,0.58551 l 2.425009,-1.400079 c 0.765485,-0.44176 1.02727,-1.42053 0.585508,-2.18543 l -0.648032,-1.121932 c -0.376315,-0.651539 -0.24776,-1.477211 0.309116,-1.983249 0.465718,-0.423646 0.910986,-0.868913 1.334631,-1.334632 0.506039,-0.556292 1.331711,-0.684846 1.983249,-0.309116 l 1.121932,0.648033 c 0.765485,0.441761 1.74367,0.179392 2.185431,-0.585508 l 1.400078,-2.42501 c 0.441761,-0.765485 0.179392,-1.743669 -0.585509,-2.185431 l -1.121932,-0.648032 c -0.651538,-0.376315 -0.953058,-1.155239 -0.723997,-1.872224 0.191664,-0.599533 0.35411,-1.20783 0.488508,-1.822556 C 43.701597,27.524153 44.352552,27 45.104597,27 h 1.295481 C 47.2836,26.999999 48,26.283599 48,25.400078 V 22.599922 C 48,21.716401 47.2836,21 46.400078,21 Z m -8.400467,5.000195 c -0.0485,0 -0.09525,-0.0041 -0.142579,-0.007 v 0.0023 C 36.971757,32.143358 32.142189,36.972926 25.994351,37.8582 18.341255,38.95968 11.243864,33.649201 10.1418,25.99552 9.0403194,18.342423 14.350799,11.245033 22.00448,10.142969 29.657577,9.0414879 36.754967,14.351967 37.857032,22.005648 v 0.0023 c 0.04733,-0.0035 0.09466,-0.007 0.142579,-0.007 1.104402,0 2.000194,0.895209 2.000194,2.000195 0,1.104986 -0.895208,2.000194 -2.000194,2.000194 z"
       id="path2"
       style="fill:#ff9900;fill-opacity:1;stroke-width:0.0584341"
       sodipodi:nodetypes="sscccccccccsccccccccsssssscccccccccsccccccccsssssscccccccccsccccccccsssssscccccccccsccccccccsssssccccccccsscc" />
    <circle
       cx="25.999609"
       cy="24"
       id="circle2"
       style="fill:#ff9900;fill-opacity:1;stroke-width:0.0584341"
       r="2.0001948" />
  </g>
</svg>
