<?xml version="1.0" encoding="UTF-8" standalone="no"?>
<!-- Created with Inkscape (http://www.inkscape.org/) -->

<svg
   width="512"
   height="512"
   viewBox="0 0 512 512"
   version="1.1"
   id="svg1"
   inkscape:version="1.3.2 (091e20e, 2023-11-25)"
   sodipodi:docname="logo.svg"
   xmlns:inkscape="http://www.inkscape.org/namespaces/inkscape"
   xmlns:sodipodi="http://sodipodi.sourceforge.net/DTD/sodipodi-0.dtd"
   xmlns="http://www.w3.org/2000/svg"
   xmlns:svg="http://www.w3.org/2000/svg">
  <sodipodi:namedview
     id="namedview1"
     pagecolor="#ffffff"
     bordercolor="#000000"
     borderopacity="0.25"
     inkscape:showpageshadow="2"
     inkscape:pageopacity="0.0"
     inkscape:pagecheckerboard="0"
     inkscape:deskcolor="#d1d1d1"
     inkscape:document-units="px"
     inkscape:zoom="0.49554858"
     inkscape:cx="-251.23672"
     inkscape:cy="234.08401"
     inkscape:window-width="1312"
     inkscape:window-height="449"
     inkscape:window-x="0"
     inkscape:window-y="38"
     inkscape:window-maximized="0"
     inkscape:current-layer="g2" />
  <defs
     id="defs1" />
  <g
     inkscape:label="Layer 1"
     inkscape:groupmode="layer"
     id="layer1">
    <g
       id="g2"
       transform="matrix(0.62329568,0,0,0.62329568,-54.575769,-0.00623296)">
      <g
         id="ARC">
        <path
           d="m 735.42,376.59 c 3.26,22.64 3.26,45.64 0,68.28 -17.91,-1.28 -31.78,-16.19 -31.78,-34.14 0,-17.95 13.87,-32.86 31.78,-34.14 z"
           id="path1"
           style="fill:#ff9900;fill-opacity:1" />
      </g>
      <g
         id="ARC-2"
         data-name="ARC">
        <circle
           cx="635.17999"
           cy="410.73001"
           r="34.23"
           id="circle1"
           style="fill:#ff9900;fill-opacity:1" />
      </g>
      <path
         d="m 881.62,359.39 h -22.17 c -12.88,0 -24.01,-8.97 -26.75,-21.55 -2.29,-10.52 -5.08,-20.93 -8.36,-31.19 -3.92,-12.27 1.24,-25.6 12.39,-32.04 l 19.2,-11.09 c 13.1,-7.56 17.58,-24.31 10.02,-37.4 l -23.96,-41.5 c -7.56,-13.1 -24.31,-17.58 -37.4,-10.02 l -19.2,11.09 c -11.15,6.44 -25.28,4.24 -33.94,-5.29 -7.25,-7.97 -14.87,-15.59 -22.84,-22.84 -9.52,-8.66 -11.72,-22.79 -5.29,-33.94 l 11.09,-19.2 c 7.56,-13.1 3.07,-29.84 -10.02,-37.4 l -41.5,-23.96 c -13.1,-7.56 -29.84,-3.07 -37.4,10.02 L 634.4,72.28 C 627.96,83.43 614.63,88.59 602.36,84.67 592.1,81.39 581.69,78.61 571.17,76.31 558.59,73.57 549.62,62.43 549.62,49.56 V 27.39 c 0,-15.12 -12.26,-27.38 -27.38,-27.38 h -47.92 c -15.12,0 -27.38,12.26 -27.38,27.38 v 22.17 c 0,12.88 -8.97,24.01 -21.55,26.75 -10.52,2.29 -20.93,5.08 -31.19,8.36 -12.27,3.92 -25.6,-1.24 -32.04,-12.39 L 351.07,53.08 C 343.51,39.98 326.76,35.5 313.67,43.06 l -41.5,23.96 c -13.1,7.56 -17.58,24.31 -10.02,37.4 l 11.09,19.2 c 6.44,11.15 4.24,25.28 -5.29,33.94 -7.97,7.25 -15.59,14.87 -22.84,22.84 -8.66,9.52 -22.79,11.72 -33.94,5.29 l -19.2,-11.09 c -13.1,-7.56 -29.84,-3.07 -37.4,10.02 l -23.96,41.5 c -7.56,13.1 -3.07,29.84 10.02,37.4 l 19.2,11.09 c 11.15,6.44 16.31,19.77 12.39,32.04 -3.28,10.26 -6.06,20.67 -8.36,31.19 -2.74,12.58 -13.88,21.55 -26.75,21.55 h -22.17 c -15.12,0 -27.38,12.26 -27.38,27.38 v 47.92 c 0,15.12 12.26,27.38 27.38,27.38 h 22.17 c 12.88,0 24.01,8.97 26.75,21.55 2.29,10.52 5.08,20.93 8.36,31.19 3.92,12.27 -1.24,25.6 -12.39,32.04 l -19.2,11.09 c -13.1,7.56 -17.58,24.31 -10.02,37.4 l 23.96,41.5 c 7.56,13.1 24.31,17.58 37.4,10.02 l 19.2,-11.09 c 11.15,-6.44 25.28,-4.24 33.94,5.29 7.25,7.97 14.87,15.59 22.84,22.84 9.52,8.66 11.72,22.79 5.29,33.94 l -11.09,19.2 c -7.56,13.1 -3.07,29.84 10.02,37.4 l 41.5,23.96 c 13.1,7.56 29.84,3.07 37.4,-10.02 l 11.09,-19.2 c 6.44,-11.15 19.77,-16.31 32.04,-12.39 10.26,3.28 20.67,6.06 31.19,8.36 12.58,2.74 21.55,13.88 21.55,26.75 v 22.17 c 0,15.12 12.26,27.38 27.38,27.38 h 47.92 c 15.12,0 27.38,-12.26 27.38,-27.38 V 771.9 c 0,-12.88 8.97,-24.01 21.55,-26.75 10.52,-2.29 20.93,-5.08 31.19,-8.36 12.27,-3.92 25.6,1.24 32.04,12.39 l 11.09,19.2 c 7.56,13.1 24.31,17.58 37.4,10.02 l 41.5,-23.96 c 13.1,-7.56 17.58,-24.31 10.02,-37.4 l -11.09,-19.2 c -6.44,-11.15 -4.24,-25.28 5.29,-33.94 7.97,-7.25 15.59,-14.87 22.84,-22.84 8.66,-9.52 22.79,-11.72 33.94,-5.29 l 19.2,11.09 c 13.1,7.56 29.84,3.07 37.4,-10.02 l 23.96,-41.5 c 7.56,-13.1 3.07,-29.84 -10.02,-37.4 l -19.2,-11.09 c -11.15,-6.44 -16.31,-19.77 -12.39,-32.04 3.28,-10.26 6.06,-20.67 8.36,-31.19 2.74,-12.58 13.88,-21.55 26.75,-21.55 h 22.17 c 15.12,0 27.38,-12.26 27.38,-27.38 v -47.92 c 0,-15.12 -12.26,-27.38 -27.38,-27.38 z m -143.76,85.57 c -0.83,0 -1.63,-0.07 -2.44,-0.12 v 0.04 C 720.27,550.09 637.62,632.74 532.41,647.89 401.44,666.74 279.98,575.86 261.12,444.88 242.27,313.91 333.15,192.45 464.13,173.59 595.1,154.74 716.56,245.62 735.42,376.6 v 0.04 c 0.81,-0.06 1.62,-0.12 2.44,-0.12 18.9,0 34.23,15.32 34.23,34.23 0,18.91 -15.32,34.23 -34.23,34.23 z"
         id="path2"
         style="fill:#ff9900;fill-opacity:1" />
      <g
         id="ARC-3"
         data-name="ARC">
        <circle
           cx="532.5"
           cy="410.73001"
           r="34.23"
           id="circle2"
           style="fill:#ff9900;fill-opacity:1" />
      </g>
    </g>
  </g>
</svg>
