<?xml version="1.0" encoding="UTF-8" standalone="no"?>
<!-- Created with Inkscape (http://www.inkscape.org/) -->

<svg
   version="1.1"
   id="svg2"
   width="728.20001"
   height="166.86667"
   viewBox="0 0 728.20001 166.86667"
   sodipodi:docname="SOE_CEEO_horiz_white.eps"
   xmlns:inkscape="http://www.inkscape.org/namespaces/inkscape"
   xmlns:sodipodi="http://sodipodi.sourceforge.net/DTD/sodipodi-0.dtd"
   xmlns="http://www.w3.org/2000/svg"
   xmlns:svg="http://www.w3.org/2000/svg">
  <defs
     id="defs6" />
  <sodipodi:namedview
     id="namedview4"
     pagecolor="#ffffff"
     bordercolor="#000000"
     borderopacity="0.25"
     inkscape:showpageshadow="2"
     inkscape:pageopacity="0.0"
     inkscape:pagecheckerboard="0"
     inkscape:deskcolor="#d1d1d1" />
  <g
     id="g8"
     inkscape:groupmode="layer"
     inkscape:label="ink_ext_XXXXXX"
     transform="matrix(1.3333333,0,0,-1.3333333,0,166.86667)">
    <g
       id="g10"
       transform="scale(0.1)">
      <path
         d="m 1790.51,139.172 h -8.47 v 897.378 h 8.47 V 139.172"
         style="fill:#ffffff;fill-opacity:1;fill-rule:nonzero;stroke:none"
         id="path12" />
      <path
         d="m 950.172,530.988 c -0.055,0 -0.109,0 -0.176,0 -0.234,0 -0.43,-0.031 -0.652,-0.031 -1.434,0 -2.867,0.27 -4.574,0.496 l 0.246,34.606 c 0,1.421 0.507,2.879 1.461,3.476 0.828,0.543 2.089,0.703 3.652,0.738 0.465,0 0.953,0 1.461,0 6.023,0 11.57,-1.3 15.879,-5.156 3.004,-2.75 5.293,-7.937 5.293,-13.445 0,-5.535 -3.867,-20.684 -22.59,-20.684 z m 51.858,-37.547 c -2.882,0 -6.233,0.231 -8.518,2.258 -1.801,1.684 -9.469,12.477 -10.207,13.68 -0.957,1.449 -8.426,12.742 -9.836,14.644 -1.684,2.161 -3.844,4.348 -7.219,5.551 v 0.492 c 13.234,2.118 22.355,8.391 22.355,23.536 0,4.543 -2.183,9.601 -6.496,13.453 -4.789,4.312 -12.254,7.531 -21.843,7.531 -3.625,0 -14.653,-0.356 -21.379,-0.356 -11.758,0 -15.602,0.356 -16.449,0.356 -0.598,0 -0.844,-0.223 -0.844,-0.832 v -3.211 c 0,-0.465 0.246,-0.73 0.844,-0.73 h 4.691 c 2.156,0 3.832,-1.938 3.832,-6.024 v -31.605 c 0,-11.246 0,-22.539 -0.25,-34.567 0,-3.242 -1.91,-3.945 -4.574,-3.945 h -4.059 c -0.484,0 -0.734,-0.371 -0.734,-1 v -2.727 c 0,-0.718 0.25,-1.093 0.972,-1.093 1.219,0 4.063,0.375 15.856,0.375 12.465,0 14.879,-0.375 16.441,-0.375 0.961,0 1.34,0.226 1.34,1.093 v 2.891 c 0,0.465 -0.242,0.836 -0.976,0.836 h -6.012 c -1.914,0 -2.738,2.16 -3.11,4.547 -0.242,1.812 -0.488,15.265 -0.488,22.484 v 6.469 c 1.328,0.094 3.367,0.242 3.844,0.242 5.035,0 7.816,-3.266 10.816,-7.465 1.899,-2.644 5.286,-8.148 6.473,-10.304 1.082,-1.93 5.785,-10.571 7.902,-13.946 1.582,-2.531 3.868,-5.754 5.321,-6.847 2.625,0.136 7.199,0.375 10.554,0.375 7.711,0 10.803,-0.375 11.753,-0.375 0.74,0 0.98,0.375 0.98,1.199 v 2.515 c 0,0.497 -0.24,0.875 -0.98,0.875 z m 238.61,0.231 h -5.03 c -2.89,0 -4.83,0.465 -4.83,4.316 0,1.285 -0.23,28.95 -0.23,30.145 v 9.367 c 0,1.418 0.23,27.863 0.23,29.059 0,2.289 1.94,3.254 4.6,3.254 h 4.55 c 0.47,0 0.95,0.265 0.95,0.953 v 2.754 c 0,0.566 -0.24,1.066 -0.95,1.066 -1.65,0 -5.52,-0.356 -17.06,-0.356 -11.75,0 -17.98,0.356 -19.45,0.356 -0.46,0 -0.69,-0.223 -0.69,-0.832 v -3.121 c 0,-0.555 0.23,-0.82 0.96,-0.82 h 6.22 c 3.36,0 4.58,-1.204 4.92,-4.09 0.12,-1.594 0.36,-23.203 0.36,-26.071 v -8.425 c 0,-6.469 -0.24,-32.411 -0.47,-34.075 -0.48,-3.254 -3.14,-3.48 -5.54,-3.48 h -4.78 c -0.71,0 -0.98,-0.231 -0.98,-0.742 v -3.242 c 0,-0.61 0.27,-0.836 0.98,-0.836 1.18,0 6.47,0.375 18.47,0.375 11.3,0 16.1,-0.375 17.53,-0.375 0.73,0 1.21,0.226 1.21,0.961 v 3.023 c 0,0.605 -0.48,0.836 -0.97,0.836 z m 313.8,80.914 c -1.2,0 -3.86,-0.356 -11.55,-0.356 -8.41,0 -13.44,0.356 -14.61,0.356 -0.49,0 -0.75,-0.223 -0.75,-0.832 v -2.988 c 0,-0.602 0.26,-0.953 0.98,-0.953 h 3.12 c 3.62,0 4.32,-2.168 4.08,-4.364 -0.24,-2.976 -15.73,-27.949 -19.83,-34.691 -3.24,6.742 -17.65,33.371 -17.89,35.562 -0.23,2.528 0.73,3.493 3.39,3.493 h 3.08 c 0.73,0 0.98,0.46 0.98,1.195 v 2.746 c 0,0.609 -0.25,0.832 -0.98,0.832 -1.16,0 -5.51,-0.356 -17.77,-0.356 -9.1,0 -14.9,0.356 -15.82,0.356 -0.75,0 -0.98,-0.223 -0.98,-0.723 v -3.23 c 0,-0.555 0.23,-0.82 0.98,-0.82 h 2.13 c 1.95,0 4.59,-0.965 6.02,-2.668 3.32,-4.204 22.81,-38.774 24.74,-42.387 V 519 c 0,-11.285 -0.23,-20.648 -0.35,-22.312 -0.11,-1.817 -1.11,-3.016 -4.23,-3.016 h -4.91 c -0.57,0 -0.82,-0.504 -0.82,-1 v -2.727 c 0,-0.629 0.25,-1.093 0.82,-1.093 1.1,0 4.91,0.375 16.7,0.375 10.79,0 15.6,-0.375 16.94,-0.375 0.6,0 0.83,0.375 0.83,1.199 v 2.785 c 0,0.465 -0.23,0.836 -0.83,0.836 h -3.98 c -2.41,0 -4.32,0.226 -4.66,4.047 -0.13,1.355 -0.36,9.273 -0.36,13.844 v 14.621 c 4.55,7.961 24.48,38.714 26.43,40.871 1.9,2.027 4.79,2.758 6.48,2.758 h 2.62 c 0.71,0 0.94,0.46 0.94,1.195 v 2.746 c 0,0.609 -0.23,0.832 -0.94,0.832 z m -449.7,-33.965 c -4.81,1.43 -11.56,4.317 -14.68,7.438 -2.86,3.117 -3.35,6.742 -3.35,10.781 0,4.484 3.84,12.168 13.42,12.168 5.57,0 9.39,-1.703 12.51,-5.059 4.31,-4.539 6.25,-9.355 7.46,-12.711 0.25,-0.73 0.72,-0.832 1.2,-0.73 l 1.91,0.633 c 0.48,0.097 0.72,0.336 0.72,0.832 0,1.187 -1.88,17.992 -1.88,19.89 0,1.219 -0.26,1.918 -1,1.918 -0.7,0 -1.2,-0.222 -1.66,-0.699 l -1.58,-1.562 c -0.58,-0.618 -1.33,-0.848 -2.55,-0.352 -2.37,0.918 -7.19,2.891 -15.13,2.891 -6.95,0 -12.21,-1.696 -17.04,-5.786 -5.75,-4.55 -8.4,-10.097 -8.4,-16.796 0,-7.34 1.92,-13.36 6.04,-17.18 5.75,-5.309 13.64,-8.66 17.5,-10.113 12.74,-4.75 17.76,-8.379 17.76,-19.43 0,-9.965 -9.12,-14.082 -15.59,-14.082 -6.03,0 -12.25,2.887 -15.85,8.695 -3.34,5.254 -4.32,9.824 -4.54,13.656 0,0.731 -0.25,0.993 -0.75,0.993 l -2.65,0.238 c -0.47,0 -0.59,-0.238 -0.73,-0.965 -0.23,-1.461 -1.9,-20.914 -2.15,-22.359 0,-1.196 0.46,-1.922 1.45,-1.922 0.96,0 1.43,0.226 2.16,1.426 0.71,1.238 1.2,2.203 1.92,2.203 0.75,0 1.47,-0.5 2.87,-1.469 4.81,-3.613 10.55,-5.75 20.42,-5.75 15.84,0 25.48,11.996 25.48,26.645 0,8.058 -2.16,13.109 -5.98,17.164 -4.6,4.832 -10.36,7.23 -17.31,9.394 z m -832.521,33.965 c -0.965,0 -4.781,-0.356 -12.246,-0.356 -7.907,0 -13.465,0.356 -14.66,0.356 -0.7,0 -0.958,-0.223 -0.958,-0.957 v -2.996 c 0,-0.469 0.258,-0.82 0.958,-0.82 h 4.351 c 2.652,0 4.539,-2.168 4.91,-5.325 0.336,-2.707 1.313,-13.312 1.313,-22.902 v -21.637 c 0,-8.758 -2.391,-15.726 -6.949,-20.265 -3.875,-3.625 -10.594,-5.786 -16.083,-5.786 -5.761,0 -12.269,1.934 -16.359,7.469 -2.887,3.813 -3.848,9.328 -4.195,14.887 -0.242,3.851 -0.356,12.344 -0.356,18.351 v 14.883 c 0,6.973 0.246,14.18 0.356,15.629 0.109,2.528 2.293,4.696 5.89,4.696 h 5.028 c 0.73,0 0.972,0.265 0.972,0.953 v 2.988 c 0,0.609 -0.242,0.832 -0.972,0.832 -1.442,0 -7.176,-0.356 -17.289,-0.356 -11.508,0 -17.289,0.356 -18.489,0.356 -0.961,0 -1.199,-0.223 -1.199,-0.957 v -2.719 c 0,-0.832 0.238,-1.097 0.961,-1.097 h 5.524 c 3.117,0 4.074,-1.938 4.074,-6.024 V 535.34 c 0,-15.731 0.488,-23.637 2.16,-28.961 2.43,-7.668 7.207,-13.211 14.184,-16.106 4.582,-1.882 11.523,-2.855 17.281,-2.855 9.129,0 16.832,2.855 21.89,7.453 6.481,5.77 9.336,13.199 10.051,23.074 0.485,4.743 0.715,25.66 0.715,27.356 0,1.558 0,18.367 0.242,19.816 0.246,1.309 0.739,4.696 5.074,4.696 h 4.305 c 0.61,0 0.707,0.351 0.707,1.097 v 2.719 c 0,0.601 -0.097,0.957 -1.191,0.957 z m 1123.131,2.758 c -0.26,1.469 -0.47,1.969 -1.21,1.969 -0.72,0 -1.2,-0.5 -2.16,-1.208 -1.81,-1.328 -6.36,-3.023 -8.65,-3.156 -5.53,-0.23 -10.56,-0.719 -23.78,-0.719 h -6.47 c -11.78,0 -16.84,0.489 -23.31,0.719 -3.35,0.133 -5.76,0.699 -8.17,3.156 -0.69,0.708 -1.19,1.208 -1.93,1.208 -0.46,0 -1.19,-0.5 -1.42,-2.204 -0.5,-1.695 -4.56,-17.531 -5.75,-22.082 -0.14,-0.589 0,-0.964 0.48,-1.203 l 2.35,-0.84 c 0.63,-0.238 0.99,0.254 1.35,0.84 2.29,4.059 6.84,12 10.67,13.696 5.07,1.695 13.73,1.695 17.55,1.695 h 3.32 v -30.059 c 0,-2.359 0,-39.125 -0.32,-42.242 -0.12,-1.781 -1.55,-3.242 -3.97,-3.242 h -6.81 c -0.51,0 -0.88,-0.231 -0.88,-1 v -2.727 c 0,-0.867 0.28,-1.093 0.97,-1.093 1.66,0 6.72,0.375 18.98,0.375 12.96,0 16.81,-0.375 18.01,-0.375 0.96,0 1.21,0.464 1.21,1.199 v 2.515 c 0,0.602 -0.25,1.106 -0.73,1.106 h -6.95 c -2.9,0 -4.11,2.387 -4.11,11.508 v 64.035 h 3.38 c 4.34,0 15.13,-0.242 18.49,-2.16 3.36,-2.43 7.82,-10.129 9.5,-13.453 0.36,-0.735 0.59,-1.094 1.05,-0.961 l 2.4,0.836 c 0.37,0.125 0.63,0.347 0.49,1.05 -0.95,5.786 -3.35,20.657 -3.58,22.817 z m -963.174,-2.758 c -1.438,0 -4.324,-0.356 -11.531,-0.356 -8.176,0 -11.993,0.356 -13.454,0.356 -0.957,0 -0.957,-0.223 -0.957,-0.957 v -2.719 c 0,-0.637 0,-1.097 0.739,-1.097 h 3.836 c 2.882,0 5.511,-1.708 6.371,-4.59 0.609,-2.02 1.086,-13.778 1.3,-18.364 0.231,-5.992 0.231,-11.984 0.231,-22.578 v -12.48 h -0.445 c -1.946,2.383 -20.672,25.699 -22.368,27.582 -2.378,3.351 -25.929,32.91 -27.113,34.137 -0.738,0.71 -1.441,1.066 -2.89,1.066 -0.715,0 -1.801,-0.133 -3.356,-0.133 -1.461,-0.09 -3.242,-0.223 -5.297,-0.223 -5.265,0 -8.531,0 -10.683,0.133 -2.172,0.09 -3.121,0.223 -3.711,0.223 -0.457,0 -0.743,-0.223 -0.743,-0.723 v -3.23 c 0,-0.469 0.286,-0.699 0.743,-0.82 h 3.832 c 5.297,0 9.359,-5.547 9.359,-12.754 v -15.235 c 0,-19.226 -0.707,-36.035 -0.844,-38.187 -0.597,-7.309 -2.293,-9.965 -5.398,-9.965 h -4.078 c -0.485,0 -0.711,-0.504 -0.711,-0.742 v -2.985 c 0,-0.867 0.226,-1.093 0.711,-1.093 1.199,0 9.375,0.375 12.492,0.375 4.562,0 11.758,-0.375 12.957,-0.375 0.961,0 0.961,0.226 0.961,0.961 v 2.753 c 0,0.602 0,1.106 -0.961,1.106 h -3.121 c -4.313,0 -5.785,2.887 -6.016,8.891 -0.215,3.691 -1.203,20.531 -1.203,40.957 v 14.625 h 0.727 c 1.445,-1.684 20.679,-25.696 22.367,-27.387 1.426,-1.895 10.781,-13.219 19.195,-23.539 7.43,-8.867 13.934,-16.336 14.91,-17.531 0.946,-0.961 2.391,-1.895 4.063,-1.895 1.449,0 1.449,1.656 1.449,3.348 v 31.679 c 0,12.282 1.195,32.446 1.793,40.614 0.367,4.441 1.586,6.379 3.941,6.379 h 3.391 c 0.477,0 0.719,0.46 0.719,1.195 v 2.746 c 0,0.332 -0.242,0.832 -1.207,0.832 z M 846.965,511.07 c -0.5,0.254 -0.856,0.121 -1.336,-0.465 -2.301,-2.89 -8.973,-10.832 -11.18,-12.753 -3.097,-2.629 -7.679,-3.817 -9.82,-4.086 -2.402,-0.227 -7.969,-0.465 -10.106,-0.465 -4.585,0 -7.421,0.465 -9.363,0.965 -2.656,0.73 -4.82,3.117 -4.82,9.371 0,2.152 -0.219,13.902 -0.36,20.386 l -0.14,7.204 c 3.898,0 9.633,-0.239 13.984,-0.704 2.621,-0.23 4.91,-1.925 5.985,-4.339 0.621,-1.426 1.457,-4.063 1.921,-5.989 0.239,-0.699 0.497,-0.965 0.973,-0.832 l 2.625,0.465 c 0.719,0.121 0.965,0.277 0.965,0.875 -0.246,2.613 -0.711,8.395 -0.711,13.176 0,3.156 0,11.059 0.234,12.98 0.086,0.7 -0.234,0.969 -0.73,0.969 l -3.117,0.231 c -0.465,0 -0.957,-0.231 -0.957,-0.961 0,-2.16 -1.203,-5.188 -1.918,-6.707 -1.449,-2.891 -2.879,-3.856 -5.531,-4.332 -1.43,-0.348 -10.063,-0.586 -13.723,-0.586 l 0.281,34.691 18.231,-0.488 c 3.378,-0.098 6.609,-1.696 9.156,-3.117 2.879,-1.661 12.722,-12.735 13.222,-13.418 0.321,-0.633 0.696,-0.735 1.063,-0.633 l 2.164,0.969 c 0.461,0.226 0.586,0.586 0.348,1.324 -0.5,1.16 -5.035,17.492 -5.524,19.062 -0.125,0.5 -0.343,0.723 -0.941,0.723 -0.598,0 -2.902,-0.133 -4.828,-0.133 -5.27,0 -32.891,-0.223 -38.188,-0.223 h -3.336 c -9.867,-0.144 -14.195,0.356 -16.808,0.356 -0.598,0 -0.742,-0.223 -0.742,-0.832 v -3.121 c 0,-0.555 0.246,-0.82 0.742,-0.82 h 4.539 c 3.633,0 4.797,-0.965 5.293,-4.219 0.234,-1.696 0.465,-16.578 0.465,-26.438 v -40.34 c 0,-4.441 -0.465,-5.144 -5.989,-5.144 h -4.086 c -0.964,0 -1.183,-0.231 -1.183,-1 v -2.859 c 0,-0.735 0.219,-0.961 0.961,-0.961 2.121,0 6.476,0.375 15.359,0.375 40.106,0 49.484,-0.375 50.691,-0.375 1.418,0 2.247,0.703 2.598,1.796 l 5.793,18.028 c 0.234,0.597 0.145,0.969 -0.254,1.195 z m -142.922,63.516 c -0.957,0 -4.082,-0.356 -14.16,-0.356 -7.688,0 -13.211,0.356 -14.192,0.356 -0.703,0 -0.921,-0.223 -0.921,-0.957 v -2.719 c 0,-0.637 0.359,-1.097 0.828,-1.097 h 3.211 c 3.386,0 4.597,-1.938 4.597,-3.387 0,-4.918 -7.453,-23.059 -9.367,-28.703 -1.203,-3.578 -8.902,-23.539 -11.793,-30.274 v -0.23 h -0.242 c -1.906,6.5 -8.395,25.465 -10.086,30.039 -2.383,6.945 -6.945,21.125 -7.777,25.445 -0.371,1.695 -0.371,3.121 -0.371,4.074 0,1.832 1.902,3.036 5.07,3.036 h 5.734 c 0.707,0 0.961,0.351 0.961,1.195 v 2.621 c 0,0.601 -0.254,0.957 -1.187,0.957 -0.969,0 -6.473,-0.356 -17.785,-0.356 -12.473,0 -16.583,0.356 -17.778,0.356 -0.465,0 -0.738,-0.223 -0.738,-0.957 v -2.719 c 0,-0.746 0.273,-1.097 0.738,-1.097 h 2.879 c 2.656,0 4.094,-1.204 5.149,-3.864 1.355,-3.476 6.64,-18.851 9.75,-27.492 4.082,-11.191 14.16,-38.684 18.25,-48.902 0.585,-1.403 1.207,-2.727 2.652,-2.727 0.965,0 1.887,0.59 2.379,1.563 1.203,2.492 15.609,37.55 18.019,42.836 3.379,7.929 10.578,26.656 14.52,33.039 2.769,4.343 5.926,5.547 8.781,5.547 h 2.879 c 0.746,0 0.969,0.351 0.969,0.953 v 2.988 c 0,0.609 -0.223,0.832 -0.969,0.832 z M 544.566,493.672 h -5.027 c -2.879,0 -4.793,0.465 -4.793,4.316 0,1.285 -0.246,28.95 -0.246,30.145 v 9.367 c 0,1.418 0.246,27.863 0.246,29.059 0,2.289 1.914,3.254 4.551,3.254 h 4.558 c 0.477,0 0.965,0.265 0.965,0.953 v 2.754 c 0,0.566 -0.254,1.066 -0.965,1.066 -1.66,0 -5.535,-0.356 -17.054,-0.356 -11.746,0 -18.004,0.356 -19.446,0.356 -0.472,0 -0.726,-0.223 -0.726,-0.832 v -3.121 c 0,-0.555 0.254,-0.82 0.965,-0.82 h 6.261 c 3.356,0 4.543,-1.204 4.895,-4.09 0.121,-1.594 0.371,-23.203 0.371,-26.071 v -8.425 c 0,-6.469 -0.25,-32.411 -0.484,-34.075 -0.461,-3.254 -3.106,-3.48 -5.52,-3.48 h -4.797 c -0.726,0 -0.965,-0.231 -0.965,-0.742 v -3.242 c 0,-0.61 0.239,-0.836 0.965,-0.836 1.207,0 6.5,0.375 18.481,0.375 11.297,0 16.101,-0.375 17.531,-0.375 0.731,0 1.195,0.226 1.195,0.961 v 3.023 c 0,0.605 -0.464,0.836 -0.961,0.836 z m 764.994,446.723 h -0.02 c -21.58,-18.2 -32.57,-40.782 -32.57,-67.145 0,-28.109 11.6,-51.004 34.45,-68.062 23.49,-17.477 62.61,-30.758 116.38,-39.434 27.3,-4.527 45.25,-9.32 54.91,-14.457 10.7,-5.746 16.1,-14.074 16.1,-24.805 0,-11.215 -5.73,-20.508 -17.07,-27.554 -10.61,-6.606 -25.39,-9.961 -43.86,-9.961 -21.38,0 -39.68,5.05 -54.38,14.976 -13.65,9.207 -21.36,21.75 -23.27,37.067 -3.55,0 -66.01,0 -70.32,0 0,-4.395 0,-102.524 0,-106.887 4.28,0 65.26,0 69.56,0 0,3.676 0,24.203 0,24.203 l 8.15,-8.969 c 13.92,-15.199 40.59,-22.949 79.31,-22.949 41.94,0 74.67,10.262 97.32,30.426 22.47,20.078 33.9,46.219 33.9,77.726 0,22.094 -5.98,41.317 -17.75,57.071 -11.87,15.839 -27.89,27.332 -47.59,34.199 -20.42,7.105 -51.65,14.344 -92.86,21.469 -27.07,4.793 -43.58,8.879 -50.47,12.523 -7.93,4.164 -12.13,10.734 -12.13,18.977 0,20.312 17.33,30.597 51.52,30.597 42.26,0 68.13,-11.949 77.1,-35.281 2.77,0 65.15,0 69.46,0 0,4.324 0,84.391 0,88.742 -4.25,0 -63.54,0 -67.8,0 0,-3.113 0,-13.918 0,-13.918 l -6.54,2.77 c -25.85,10.871 -54.03,16.406 -83.75,16.406 -36.41,0 -65.98,-9.328 -87.78,-27.73 z m -128.48,123.035 c 0,0 -61.46,-44.16 -64.16,-46.07 0,-3.27 0,-56.868 0,-56.868 0,0 -37.22,0 -42.96,0 0,-5.82 0,-57.058 0,-62.801 5.74,0 42.96,0 42.96,0 v -184.5 c 0,-54.789 25.74,-80.296 81.01,-80.296 23.73,0 48.48,5.046 73.67,14.812 0,4.109 0,51.898 0,59.184 -9.9,-2.871 -18.64,-4.567 -26.14,-4.567 -14.88,0 -24.49,3.231 -29.45,9.926 -4.48,6.023 -6.58,15.98 -6.58,31.328 v 154.113 c 0,0 56.16,0 62.17,0 0,5.743 0,56.981 0,62.801 -6.01,0 -62.17,0 -62.17,0 0,0 0,111.498 0,123.298 -7.52,-5.41 -28.35,-20.36 -28.35,-20.36 z m -241.225,20.05 v 0 c -20.554,-22.3 -30.968,-50.53 -30.968,-84 v -38.828 c 0,0 -39.645,0 -45.375,0 0,-5.785 0,-57.015 0,-62.789 5.73,0 45.375,0 45.375,0 V 700.402 c 0,0 -39.699,0 -45.473,0 0,-5.777 0,-56.644 0,-62.461 6.371,0 184.686,0 191.076,0 0,5.817 0,56.684 0,62.461 -5.91,0 -53.13,0 -53.13,0 v 197.461 c 0,0 47.22,0 53.13,0 0,5.774 0,57.004 0,62.789 -5.91,0 -53.13,0 -53.13,0 v 44.758 c 0,45.11 19.42,54.55 35.7,54.55 14.42,0 25.72,-10.63 33.74,-31.35 5.23,4.1 58.49,45.7 63.46,49.57 -21.28,25.55 -55.4,38.64 -101.75,38.64 -41.115,0 -72.28,-11.22 -92.655,-33.34 z M 661.883,960.512 c 0,-5.774 0,-57 0,-62.778 5.89,0 52.062,0 52.062,0 V 734.18 l -3.125,-2.364 c -22.922,-16.964 -44.554,-25.593 -64.343,-25.593 -15.844,0 -27.266,4.043 -33.883,12.05 -6.375,7.633 -9.485,20.536 -9.485,39.348 0,0 0,196.387 0,202.891 -6.281,0 -136.515,0 -142.789,0 0,-5.774 0,-57 0,-62.778 5.891,0 50.66,0 50.66,0 V 730.016 c 0,-31.047 8.571,-55.215 25.493,-71.883 16.894,-16.735 40.882,-25.195 71.218,-25.195 31.543,0 63.227,10.863 94.137,32.164 l 12.117,8.375 c 0,0 0,-30.254 0,-35.645 6.246,0 123.926,0 130.149,0 0,5.797 0,56.66 0,62.473 -5.571,0 -37.649,0 -37.649,0 0,0 0,253.672 0,260.207 -6.297,0 -138.297,0 -144.562,0 z M 102.77,1112.15 V 927.668 h 68 V 1036.2 h 88.492 V 703.66 h -73.02 V 637.047 H 443.27 v 66.613 h -73.032 v 332.54 h 90.582 c 0,0 -0.09,-50.337 -0.09,-56.286 h 67.067 V 1112.15 H 102.77"
         style="fill:#ffffff;fill-opacity:1;fill-rule:nonzero;stroke:none"
         id="path14" />
      <path
         d="m 1971.93,877.895 v 26.402 h 12.54 c 2.86,-19.578 10.12,-29.043 34.33,-29.043 24.64,0 33.66,12.539 33.66,29.262 0,19.144 -8.36,24.644 -29.27,31.027 l -15.17,4.617 c -21.13,6.383 -33.24,18.262 -33.24,39.164 0,25.086 17.61,42.246 47.76,42.246 21.12,0 32.78,-5.05 40.26,-10.56 v -22.881 h -11.66 c -2.65,14.741 -9.46,24.421 -31.46,24.421 -18.27,0 -29.49,-9.9 -29.49,-26.402 0,-16.718 8.14,-22.222 27.5,-27.945 l 15.4,-4.617 c 20.91,-6.383 35.87,-18.266 35.87,-41.367 0,-29.043 -18.48,-45.989 -53.25,-45.989 -22.22,0 -35.86,6.602 -43.78,11.665"
         style="fill:#ffffff;fill-opacity:1;fill-rule:nonzero;stroke:none"
         id="path16" />
      <path
         d="m 2167.54,950.504 h -12.32 c -2.2,12.98 -7.04,18.707 -19.8,18.707 -17.61,0 -29.48,-11.227 -29.48,-44.449 0,-35.645 10.55,-47.75 31.9,-47.75 13.42,0 19.8,3.742 29.04,11.445 l 4.62,-4.844 c -9.46,-10.562 -21.34,-17.383 -36.75,-17.383 -26.4,0 -47.96,17.602 -47.96,54.129 0,37.625 21.12,57.649 49.07,57.649 15.84,0 25.97,-4.399 31.68,-7.918 v -19.586"
         style="fill:#ffffff;fill-opacity:1;fill-rule:nonzero;stroke:none"
         id="path18" />
      <path
         d="m 2216.43,958.648 c 11.01,11 22.02,19.36 38.07,19.36 16.73,0 28.39,-10.121 28.39,-28.824 v -58.309 c 0,-12.762 2.64,-15.184 14.3,-16.062 v -6.161 h -47.08 v 6.161 c 12.54,1.101 15.4,3.96 15.4,14.523 v 55.891 c 0,13.421 -5.94,18.699 -17.39,18.699 -13.64,0 -22.44,-6.821 -31.69,-15.84 v -58.75 c 0,-10.563 2.87,-13.422 15.41,-14.523 v -6.161 h -48.19 v 6.161 c 11.66,1.101 15.4,3.742 15.4,16.062 v 105.836 c 0,16.059 -3.95,18.699 -16.72,19.359 v 5.95 l 28.83,5.93 h 2.86 c 1.1,-3.74 2.41,-11.88 2.41,-21.12 v -48.182"
         style="fill:#ffffff;fill-opacity:1;fill-rule:nonzero;stroke:none"
         id="path20" />
      <path
         d="m 2356.05,969.211 c -23.1,0 -29.92,-16.945 -29.92,-44.672 0,-33.664 8.36,-49.066 30.8,-49.066 19.81,0 29.92,16.066 29.92,44.886 0,34.106 -10.78,48.852 -30.8,48.852 z m 0.44,-103.199 c -30.36,0 -49.28,20.465 -49.28,56.328 0,35.203 18.92,56.328 48.84,56.328 32.79,0 49.73,-24.645 49.73,-57.43 0,-34.543 -20.46,-55.226 -49.29,-55.226"
         style="fill:#ffffff;fill-opacity:1;fill-rule:nonzero;stroke:none"
         id="path22" />
      <path
         d="m 2470.66,969.211 c -23.09,0 -29.92,-16.945 -29.92,-44.672 0,-33.664 8.36,-49.066 30.8,-49.066 19.81,0 29.93,16.066 29.93,44.886 0,34.106 -10.78,48.852 -30.81,48.852 z m 0.44,-103.199 c -30.36,0 -49.28,20.465 -49.28,56.328 0,35.203 18.92,56.328 48.84,56.328 32.8,0 49.73,-24.645 49.73,-57.43 0,-34.543 -20.46,-55.226 -49.29,-55.226"
         style="fill:#ffffff;fill-opacity:1;fill-rule:nonzero;stroke:none"
         id="path24" />
      <path
         d="m 2563.7,891.539 c 0,-12.547 3.3,-15.625 16.28,-16.726 v -6.161 h -49.94 v 6.161 c 12.32,1.101 16.28,3.742 16.28,16.062 v 105.613 c 0,16.062 -3.96,18.712 -17.6,19.372 v 5.93 l 29.7,6.16 h 2.86 c 1.32,-4.61 2.42,-12.54 2.42,-21.12 V 891.539"
         style="fill:#ffffff;fill-opacity:1;fill-rule:nonzero;stroke:none"
         id="path26" />
      <path
         d="m 2693.28,969.211 c -23.11,0 -29.92,-16.945 -29.92,-44.672 0,-33.664 8.36,-49.066 30.8,-49.066 19.8,0 29.92,16.066 29.92,44.886 0,34.106 -10.78,48.852 -30.8,48.852 z m 0.44,-103.199 c -30.36,0 -49.29,20.465 -49.29,56.328 0,35.203 18.93,56.328 48.85,56.328 32.78,0 49.73,-24.645 49.73,-57.43 0,-34.543 -20.46,-55.226 -49.29,-55.226"
         style="fill:#ffffff;fill-opacity:1;fill-rule:nonzero;stroke:none"
         id="path28" />
      <path
         d="m 2786.8,890.875 c 0,-11.66 3.74,-14.961 19.58,-16.062 v -6.161 h -52.37 v 6.161 c 11.66,1.101 15.4,3.742 15.4,16.062 v 73.711 h -13.86 v 5.941 l 13.86,4.84 v 21.344 c 0,19.809 13.86,31.239 33.67,31.239 7.7,0 16.72,-1.54 22.22,-3.52 l -1.76,-17.38 h -11 c -1.11,7.48 -4.62,11.45 -11.45,11.45 -9.24,0 -14.52,-5.95 -14.52,-21.57 v -21.563 h 26.41 l -2.86,-10.781 h -23.32 v -73.711"
         style="fill:#ffffff;fill-opacity:1;fill-rule:nonzero;stroke:none"
         id="path30" />
      <path
         d="m 2873.03,875.035 c 13.42,1.098 17.6,5.278 17.6,17.383 v 102.754 c 0,12.098 -4.18,16.278 -17.6,17.378 v 6.39 h 100.78 l 2.19,-31.69 h -6.81 c -5.07,16.95 -8.59,22.22 -22.23,22.22 h -38.06 v -57.646 h 21.78 c 14.52,0 19.36,3.082 20.25,15.621 h 6.37 v -40.48 h -6.37 c -0.89,11.879 -5.51,15.617 -20.03,15.617 h -22 v -64.469 h 38.28 c 17.83,0 22.45,4.84 24.21,25.524 h 7.25 v -34.985 h -105.61 v 6.383"
         style="fill:#ffffff;fill-opacity:1;fill-rule:nonzero;stroke:none"
         id="path32" />
      <path
         d="m 3094.19,890.875 c 0,-12.762 2.64,-15.184 14.3,-16.062 v -6.161 h -47.08 v 6.161 c 12.53,1.101 15.4,3.96 15.4,14.523 v 55.891 c 0,13.421 -5.94,18.699 -17.39,18.699 -13.64,0 -22.44,-6.602 -31.69,-16.059 v -58.531 c 0,-10.563 2.86,-13.422 15.41,-14.523 v -6.161 h -48.19 v 6.161 c 11.66,1.101 15.4,3.742 15.4,16.062 v 54.129 c 0,15.84 -3.3,18.703 -16.05,19.359 v 5.504 l 26.39,8.36 h 2.86 c 1.33,-3.301 3.09,-12.539 3.3,-20.461 11.01,11.445 22.9,20.242 38.95,20.242 16.73,0 28.39,-10.121 28.39,-28.824 v -58.309"
         style="fill:#ffffff;fill-opacity:1;fill-rule:nonzero;stroke:none"
         id="path34" />
      <path
         d="m 3181.84,943.242 c 0,18.043 -6.81,26.188 -21.56,26.188 -13.87,0 -21.35,-7.707 -21.35,-25.528 0,-17.382 7.71,-25.523 21.57,-25.523 14.08,0 21.34,7.699 21.34,24.863 z m -63.8,-91.531 c 0,7.699 5.49,11.883 10.55,14.738 l 7.04,0.442 c -1.09,-2.418 -2.19,-7.043 -2.19,-10.782 0,-12.757 6.82,-19.8 29.04,-19.8 23.98,0 32.13,8.796 32.13,21.125 0,14.082 -5.72,16.941 -35.65,17.601 -7.26,0.219 -13.86,0.656 -18.04,1.098 -9.68,1.097 -14.52,7.48 -14.52,16.722 0,8.36 8.14,14.743 20.68,18.922 -16.94,3.961 -26.41,16.946 -26.41,31.246 0,20.903 15.63,35.422 40.05,35.422 5.5,0 10.34,-0.656 16.72,-2.414 5.72,-1.761 11.67,-3.527 16.94,-3.527 6.61,0 11.89,2.422 17.39,6.164 l 6.6,-12.762 c -4.62,-2.199 -9.03,-3.519 -14.08,-3.519 -4.18,0 -8.36,0.66 -16.07,3.519 7.27,-5.5 12.55,-13.64 12.55,-23.324 0,-14.301 -9.25,-31.023 -38.29,-32.781 h -5.27 c -8.37,-2.422 -15.85,-7.262 -15.85,-12.324 0,-3.743 3.08,-6.164 9.24,-6.164 h 20.24 c 24.86,0 39.17,-6.817 39.17,-29.704 0,-21.121 -20.46,-34.543 -47.09,-34.543 -31.03,0 -44.88,10.782 -44.88,24.645"
         style="fill:#ffffff;fill-opacity:1;fill-rule:nonzero;stroke:none"
         id="path36" />
      <path
         d="m 3254.59,996.488 c -7.48,0 -12.98,5.722 -12.98,13.202 0,7.48 5.5,13.2 12.98,13.2 7.48,0 12.99,-5.72 12.99,-13.2 0,-7.48 -5.51,-13.202 -12.99,-13.202 z m -22.66,-127.836 v 6.161 c 11.66,1.101 15.4,3.742 15.4,16.062 v 54.352 c 0,15.836 -3.3,18.699 -16.06,19.359 v 5.504 l 30.58,8.137 h 2.87 v -87.352 c 0,-12.102 2.86,-14.961 15.4,-16.062 v -6.161 h -48.19"
         style="fill:#ffffff;fill-opacity:1;fill-rule:nonzero;stroke:none"
         id="path38" />
      <path
         d="m 3393.78,890.875 c 0,-12.762 2.64,-15.184 14.3,-16.062 v -6.161 H 3361 v 6.161 c 12.53,1.101 15.4,3.96 15.4,14.523 v 55.891 c 0,13.421 -5.94,18.699 -17.39,18.699 -13.64,0 -22.44,-6.602 -31.68,-16.059 v -58.531 c 0,-10.563 2.86,-13.422 15.4,-14.523 v -6.161 h -48.18 v 6.161 c 11.66,1.101 15.4,3.742 15.4,16.062 v 54.129 c 0,15.84 -3.3,18.703 -16.06,19.359 v 5.504 l 26.4,8.36 h 2.86 c 1.32,-3.301 3.08,-12.539 3.3,-20.461 11,11.445 22.88,20.242 38.95,20.242 16.72,0 28.38,-10.121 28.38,-28.824 v -58.309"
         style="fill:#ffffff;fill-opacity:1;fill-rule:nonzero;stroke:none"
         id="path40" />
      <path
         d="m 3436.8,931.145 h 51.7 c 0,27.722 -7.25,38.503 -24.86,38.503 -15.62,0 -25.08,-9.242 -26.84,-38.503 z m 64.47,-44.45 3.51,-6.164 c -10.33,-7.918 -22.65,-14.301 -37.61,-14.301 -30.59,0 -49.08,20.903 -49.08,56.547 0,35.426 19.58,56.11 45.99,56.11 26.85,0 42.69,-18.922 42.69,-51.922 v -5.285 h -70.19 c 0.44,-33.004 11.88,-43.567 35.86,-43.567 9.46,0 21.12,3.742 28.83,8.582"
         style="fill:#ffffff;fill-opacity:1;fill-rule:nonzero;stroke:none"
         id="path42" />
      <path
         d="M 3541.29,931.145 H 3593 c 0,27.722 -7.26,38.503 -24.87,38.503 -15.62,0 -25.07,-9.242 -26.84,-38.503 z m 64.47,-44.45 3.52,-6.164 c -10.34,-7.918 -22.66,-14.301 -37.62,-14.301 -30.59,0 -49.07,20.903 -49.07,56.547 0,35.426 19.58,56.11 45.98,56.11 26.85,0 42.69,-18.922 42.69,-51.922 v -5.285 h -70.19 c 0.44,-33.004 11.88,-43.567 35.86,-43.567 9.47,0 21.13,3.742 28.83,8.582"
         style="fill:#ffffff;fill-opacity:1;fill-rule:nonzero;stroke:none"
         id="path44" />
      <path
         d="m 3686.78,978.887 c 1.98,0 3.96,-0.442 5.5,-0.879 l -4.62,-20.242 c -1.32,0.437 -3.08,0.656 -5.94,0.656 -18.04,0 -25.08,-8.359 -25.08,-29.481 v -38.066 c 0,-12.102 3.95,-14.961 18.7,-16.062 v -6.161 h -51.48 v 6.161 c 11.66,1.101 15.4,3.742 15.4,16.062 v 54.129 c 0,15.84 -3.3,18.703 -16.07,19.359 v 5.504 l 26.18,8.36 h 2.87 c 1.54,-3.957 3.74,-13.204 3.96,-24.641 7.92,13.641 18.48,25.301 30.58,25.301"
         style="fill:#ffffff;fill-opacity:1;fill-rule:nonzero;stroke:none"
         id="path46" />
      <path
         d="m 3727.96,996.488 c -7.48,0 -12.98,5.722 -12.98,13.202 0,7.48 5.5,13.2 12.98,13.2 7.48,0 12.99,-5.72 12.99,-13.2 0,-7.48 -5.51,-13.202 -12.99,-13.202 z M 3705.3,868.652 v 6.161 c 11.66,1.101 15.4,3.742 15.4,16.062 v 54.352 c 0,15.836 -3.3,18.699 -16.06,19.359 v 5.504 l 30.58,8.137 h 2.86 v -87.352 c 0,-12.102 2.87,-14.961 15.41,-16.062 v -6.161 h -48.19"
         style="fill:#ffffff;fill-opacity:1;fill-rule:nonzero;stroke:none"
         id="path48" />
      <path
         d="m 3867.15,890.875 c 0,-12.762 2.63,-15.184 14.3,-16.062 v -6.161 h -47.09 v 6.161 c 12.54,1.101 15.4,3.96 15.4,14.523 v 55.891 c 0,13.421 -5.93,18.699 -17.38,18.699 -13.64,0 -22.44,-6.602 -31.68,-16.059 v -58.531 c 0,-10.563 2.86,-13.422 15.4,-14.523 v -6.161 h -48.18 v 6.161 c 11.66,1.101 15.4,3.742 15.4,16.062 v 54.129 c 0,15.84 -3.3,18.703 -16.07,19.359 v 5.504 l 26.41,8.36 h 2.86 c 1.32,-3.301 3.08,-12.539 3.3,-20.461 11,11.445 22.88,20.242 38.95,20.242 16.72,0 28.38,-10.121 28.38,-28.824 v -58.309"
         style="fill:#ffffff;fill-opacity:1;fill-rule:nonzero;stroke:none"
         id="path50" />
      <path
         d="m 3954.8,943.242 c 0,18.043 -6.81,26.188 -21.56,26.188 -13.86,0 -21.34,-7.707 -21.34,-25.528 0,-17.382 7.71,-25.523 21.57,-25.523 14.08,0 21.33,7.699 21.33,24.863 z M 3891,851.711 c 0,7.699 5.5,11.883 10.56,14.738 l 7.04,0.442 c -1.1,-2.418 -2.19,-7.043 -2.19,-10.782 0,-12.757 6.81,-19.8 29.04,-19.8 23.98,0 32.12,8.796 32.12,21.125 0,14.082 -5.72,16.941 -35.65,17.601 -7.25,0.219 -13.85,0.656 -18.03,1.098 -9.69,1.097 -14.53,7.48 -14.53,16.722 0,8.36 8.14,14.743 20.69,18.922 -16.95,3.961 -26.41,16.946 -26.41,31.246 0,20.903 15.63,35.422 40.05,35.422 5.5,0 10.33,-0.656 16.72,-2.414 5.72,-1.761 11.66,-3.527 16.94,-3.527 6.6,0 11.88,2.422 17.39,6.164 l 6.6,-12.762 c -4.62,-2.199 -9.03,-3.519 -14.09,-3.519 -4.17,0 -8.36,0.66 -16.06,3.519 7.26,-5.5 12.54,-13.64 12.54,-23.324 0,-14.301 -9.24,-31.023 -38.28,-32.781 h -5.29 c -8.35,-2.422 -15.83,-7.262 -15.83,-12.324 0,-3.743 3.07,-6.164 9.23,-6.164 h 20.25 c 24.86,0 39.16,-6.817 39.16,-29.704 0,-21.121 -20.46,-34.543 -47.08,-34.543 -31.03,0 -44.89,10.782 -44.89,24.645"
         style="fill:#ffffff;fill-opacity:1;fill-rule:nonzero;stroke:none"
         id="path52" />
      <path
         d="m 2081.69,484.625 c -65.45,0 -109.56,50.402 -109.56,124.961 0,74.207 44.8,125.664 111.32,125.664 27.29,0 49.69,-8.047 67.9,-20.648 l -3.85,-24.504 c -18.91,14 -39.9,23.453 -64.41,23.453 -53.21,0 -86.11,-42.008 -86.11,-103.262 0,-61.961 33.25,-103.613 85.76,-103.613 25.9,0 49.36,10.148 68.96,25.203 l 3.49,-23.106 c -18.19,-13.644 -44.8,-24.148 -73.5,-24.148"
         style="fill:#ffffff;fill-opacity:1;fill-rule:nonzero;stroke:none"
         id="path54" />
      <path
         d="m 2209.04,588.586 h 90.67 c -2.1,29.754 -16.81,51.105 -43.76,51.105 -24.15,0 -42.36,-17.851 -46.91,-51.105 z m 50.75,-102.91 c -43.39,0 -74.55,29.402 -74.55,86.457 0,53.203 30.1,86.109 71.06,86.109 44.8,0 67.2,-37.105 67.2,-82.961 v -4.894 h -115.16 c 0.7,-40.957 19.61,-64.762 52.86,-64.762 22.05,0 41.3,9.805 58.46,24.504 l 3.49,-21.004 c -16.44,-13.996 -37.8,-23.449 -63.36,-23.449"
         style="fill:#ffffff;fill-opacity:1;fill-rule:nonzero;stroke:none"
         id="path56" />
      <path
         d="m 2472.04,489.176 v 114.109 c 0,21.356 -9.8,34.309 -30.8,34.309 -17.5,0 -35.35,-10.856 -53.56,-28.707 V 489.176 h -23.1 v 165.566 h 17.85 l 3.86,-24.504 c 18.19,16.106 37.1,28.004 59.5,28.004 32.9,0 49.36,-18.902 49.36,-50.758 V 489.176 h -23.11"
         style="fill:#ffffff;fill-opacity:1;fill-rule:nonzero;stroke:none"
         id="path58" />
      <path
         d="m 2593.69,486.371 c -25.9,0 -43.05,10.152 -43.05,40.606 v 108.164 h -25.55 v 19.601 h 25.55 v 57.406 l 22.75,3.852 v -61.258 h 38.15 l 3.16,-19.601 h -41.31 V 530.828 c 0,-16.801 6.65,-24.152 24.51,-24.152 5.24,0 11.54,1.051 15.4,1.754 l 3.5,-19.254 c -4.91,-1.403 -13.31,-2.805 -23.11,-2.805"
         style="fill:#ffffff;fill-opacity:1;fill-rule:nonzero;stroke:none"
         id="path60" />
      <path
         d="m 2661.27,588.586 h 90.66 c -2.1,29.754 -16.8,51.105 -43.76,51.105 -24.15,0 -42.35,-17.851 -46.9,-51.105 z m 50.75,-102.91 c -43.4,0 -74.55,29.402 -74.55,86.457 0,53.203 30.1,86.109 71.05,86.109 44.81,0 67.21,-37.105 67.21,-82.961 v -4.894 h -115.16 c 0.7,-40.957 19.6,-64.762 52.86,-64.762 22.05,0 41.3,9.805 58.45,24.504 l 3.5,-21.004 c -16.45,-13.996 -37.8,-23.449 -63.36,-23.449"
         style="fill:#ffffff;fill-opacity:1;fill-rule:nonzero;stroke:none"
         id="path62" />
      <path
         d="M 2839.91,593.137 V 489.176 h -23.1 v 165.566 h 17.15 l 5.25,-33.957 c 12.25,18.555 31.5,36.758 58.81,37.457 l 3.84,-21.703 c -27.3,-1.75 -50.75,-21.348 -61.95,-43.402"
         style="fill:#ffffff;fill-opacity:1;fill-rule:nonzero;stroke:none"
         id="path64" />
      <path
         d="m 3073.71,718.445 c -15.75,0 -25.21,-7.347 -25.21,-25.55 v -38.153 h 33.96 l 3.15,-19.601 H 3048.5 V 489.176 h -22.75 v 145.965 h -25.19 v 19.601 h 25.19 v 39.906 c 0,30.45 18.2,44.454 46.56,44.454 5.25,0 8.4,-0.352 11.9,-0.7 l 3.5,-21.351 c -3.15,0.699 -7.7,1.394 -14,1.394"
         style="fill:#ffffff;fill-opacity:1;fill-rule:nonzero;stroke:none"
         id="path66" />
      <path
         d="m 3178.01,638.645 c -30.8,0 -50.76,-25.207 -50.76,-66.864 0,-40.254 20.65,-66.504 50.76,-66.504 31.15,0 51.45,25.203 51.45,66.504 0,40.606 -20.3,66.864 -51.45,66.864 z m 0,-152.969 c -42.36,0 -74.21,31.504 -74.21,86.105 0,54.957 32.55,86.461 74.21,86.461 43.05,0 75.25,-31.504 75.25,-86.461 0,-54.601 -32.9,-86.105 -75.25,-86.105"
         style="fill:#ffffff;fill-opacity:1;fill-rule:nonzero;stroke:none"
         id="path68" />
      <path
         d="M 3316.88,593.137 V 489.176 h -23.1 v 165.566 h 17.15 l 5.25,-33.957 c 12.26,18.555 31.5,36.758 58.81,37.457 l 3.85,-21.703 c -27.31,-1.75 -50.76,-21.348 -61.96,-43.402"
         style="fill:#ffffff;fill-opacity:1;fill-rule:nonzero;stroke:none"
         id="path70" />
      <path
         d="m 3498.52,489.176 v 241.523 h 126.01 v -22.051 h -101.86 v -82.257 h 80.51 l 3.5,-21.703 h -84.01 v -93.461 h 105.37 v -22.051 h -129.52"
         style="fill:#ffffff;fill-opacity:1;fill-rule:nonzero;stroke:none"
         id="path72" />
      <path
         d="m 3772.9,489.176 v 114.109 c 0,21.356 -9.81,34.309 -30.8,34.309 -17.5,0 -35.35,-10.856 -53.56,-28.707 V 489.176 h -23.1 v 165.566 h 17.85 l 3.85,-24.504 c 18.2,16.106 37.11,28.004 59.51,28.004 32.9,0 49.35,-18.902 49.35,-50.758 V 489.176 h -23.1"
         style="fill:#ffffff;fill-opacity:1;fill-rule:nonzero;stroke:none"
         id="path74" />
      <path
         d="m 3897.38,641.09 c -23.46,0 -38.5,-17.149 -38.5,-39.902 0,-21.352 15.04,-38.508 39.2,-38.508 24.16,0 39.2,16.8 39.2,39.207 0,22.054 -16.1,39.203 -39.9,39.203 z m -16.8,-135.465 c -22.75,-10.496 -33.26,-21.699 -33.26,-35 0,-17.152 21.71,-26.953 54.26,-26.953 33.6,0 55.3,12.949 55.3,29.398 0,12.953 -10.49,19.957 -39.9,25.559 l -16.1,2.797 c -8.4,1.754 -14,2.453 -20.3,4.199 z m 19.6,-79.457 c -42.7,0 -75.61,14.352 -75.61,43.055 0,16.8 12.96,31.152 37.81,43.757 -8.41,5.247 -12.25,11.2 -12.25,17.5 0,8.403 5.59,15.399 16.45,22.047 -18.2,9.106 -30.46,26.61 -30.46,49.36 0,35.004 29.05,56.355 61.26,56.355 16.46,0 30.8,-4.902 42,-14 l 41.31,13.301 3.85,-22.754 -33.25,-3.5 c 5.59,-8.398 8.75,-18.203 8.75,-29.402 0,-35 -29.05,-56.356 -61.96,-56.356 -4.9,0 -9.8,0.348 -14.7,1.399 -7,-3.848 -10.5,-8.047 -10.5,-11.903 0,-6.648 6.65,-9.097 37.1,-14.699 l 12.26,-2.453 c 36.74,-6.648 56.7,-17.5 56.7,-42 0,-31.855 -36.05,-49.707 -78.76,-49.707"
         style="fill:#ffffff;fill-opacity:1;fill-rule:nonzero;stroke:none"
         id="path76" />
      <path
         d="m 4017.15,489.176 v 165.566 h 22.75 V 489.176 Z m 11.55,205.121 c -9.1,0 -16.81,7.699 -16.81,16.801 0,9.101 7.71,16.8 16.81,16.8 9.1,0 16.45,-7.699 16.45,-16.8 0,-9.102 -7.35,-16.801 -16.45,-16.801"
         style="fill:#ffffff;fill-opacity:1;fill-rule:nonzero;stroke:none"
         id="path78" />
      <path
         d="m 4197.97,489.176 v 114.109 c 0,21.356 -9.81,34.309 -30.8,34.309 -17.5,0 -35.35,-10.856 -53.56,-28.707 V 489.176 h -23.1 v 165.566 h 17.85 l 3.85,-24.504 c 18.2,16.106 37.11,28.004 59.51,28.004 32.9,0 49.35,-18.902 49.35,-50.758 V 489.176 h -23.1"
         style="fill:#ffffff;fill-opacity:1;fill-rule:nonzero;stroke:none"
         id="path80" />
      <path
         d="m 4284.13,588.586 h 90.65 c -2.1,29.754 -16.79,51.105 -43.75,51.105 -24.15,0 -42.35,-17.851 -46.9,-51.105 z m 50.75,-102.91 c -43.4,0 -74.55,29.402 -74.55,86.457 0,53.203 30.1,86.109 71.06,86.109 44.8,0 67.2,-37.105 67.2,-82.961 v -4.894 h -115.16 c 0.7,-40.957 19.6,-64.762 52.86,-64.762 22.05,0 41.3,9.805 58.46,24.504 l 3.49,-21.004 c -16.45,-13.996 -37.8,-23.449 -63.36,-23.449"
         style="fill:#ffffff;fill-opacity:1;fill-rule:nonzero;stroke:none"
         id="path82" />
      <path
         d="m 4454.08,588.586 h 90.66 c -2.1,29.754 -16.8,51.105 -43.75,51.105 -24.16,0 -42.36,-17.851 -46.91,-51.105 z m 50.75,-102.91 c -43.4,0 -74.56,29.402 -74.56,86.457 0,53.203 30.11,86.109 71.07,86.109 44.8,0 67.2,-37.105 67.2,-82.961 v -4.894 h -115.16 c 0.7,-40.957 19.6,-64.762 52.86,-64.762 22.05,0 41.3,9.805 58.45,24.504 l 3.5,-21.004 c -16.45,-13.996 -37.8,-23.449 -63.36,-23.449"
         style="fill:#ffffff;fill-opacity:1;fill-rule:nonzero;stroke:none"
         id="path84" />
      <path
         d="M 4632.72,593.137 V 489.176 h -23.1 v 165.566 h 17.15 l 5.25,-33.957 c 12.26,18.555 31.5,36.758 58.81,37.457 l 3.85,-21.703 c -27.31,-1.75 -50.76,-21.348 -61.96,-43.402"
         style="fill:#ffffff;fill-opacity:1;fill-rule:nonzero;stroke:none"
         id="path86" />
      <path
         d="m 4727.43,489.176 v 165.566 h 22.75 V 489.176 Z m 11.55,205.121 c -9.1,0 -16.8,7.699 -16.8,16.801 0,9.101 7.7,16.8 16.8,16.8 9.1,0 16.45,-7.699 16.45,-16.8 0,-9.102 -7.35,-16.801 -16.45,-16.801"
         style="fill:#ffffff;fill-opacity:1;fill-rule:nonzero;stroke:none"
         id="path88" />
      <path
         d="m 4908.25,489.176 v 114.109 c 0,21.356 -9.8,34.309 -30.8,34.309 -17.5,0 -35.35,-10.856 -53.55,-28.707 V 489.176 h -23.11 v 165.566 h 17.85 l 3.85,-24.504 c 18.2,16.106 37.11,28.004 59.51,28.004 32.9,0 49.36,-18.902 49.36,-50.758 V 489.176 h -23.11"
         style="fill:#ffffff;fill-opacity:1;fill-rule:nonzero;stroke:none"
         id="path90" />
      <path
         d="m 5032.73,641.09 c -23.45,0 -38.5,-17.149 -38.5,-39.902 0,-21.352 15.05,-38.508 39.21,-38.508 24.15,0 39.2,16.8 39.2,39.207 0,22.054 -16.11,39.203 -39.91,39.203 z m -16.8,-135.465 c -22.75,-10.496 -33.26,-21.699 -33.26,-35 0,-17.152 21.71,-26.953 54.26,-26.953 33.61,0 55.31,12.949 55.31,29.398 0,12.953 -10.5,19.957 -39.91,25.559 l -16.1,2.797 c -8.4,1.754 -13.99,2.453 -20.3,4.199 z m 19.61,-79.457 c -42.71,0 -75.62,14.352 -75.62,43.055 0,16.8 12.96,31.152 37.81,43.757 -8.4,5.247 -12.25,11.2 -12.25,17.5 0,8.403 5.59,15.399 16.45,22.047 -18.2,9.106 -30.46,26.61 -30.46,49.36 0,35.004 29.06,56.355 61.26,56.355 16.46,0 30.8,-4.902 42.01,-14 l 41.3,13.301 3.85,-22.754 -33.25,-3.5 c 5.6,-8.398 8.75,-18.203 8.75,-29.402 0,-35 -29.05,-56.356 -61.95,-56.356 -4.91,0 -9.81,0.348 -14.71,1.399 -7,-3.848 -10.5,-8.047 -10.5,-11.903 0,-6.648 6.65,-9.097 37.1,-14.699 l 12.26,-2.453 c 36.74,-6.648 56.71,-17.5 56.71,-42 0,-31.855 -36.06,-49.707 -78.76,-49.707"
         style="fill:#ffffff;fill-opacity:1;fill-rule:nonzero;stroke:none"
         id="path92" />
      <path
         d="m 1982.98,139.172 v 241.527 h 126.01 v -22.051 h -101.85 v -82.257 h 80.51 l 3.49,-21.703 h -84 V 161.23 h 105.36 v -22.058 h -129.52"
         style="fill:#ffffff;fill-opacity:1;fill-rule:nonzero;stroke:none"
         id="path94" />
      <path
         d="m 2257.84,277.441 c -12.95,6.653 -25.2,9.801 -42.35,9.801 -29.76,0 -52.85,-22.402 -52.85,-68.961 0,-40.25 19.24,-61.953 45.49,-61.953 19.61,0 35.01,11.902 49.71,29.75 z m 5.61,-138.269 -4.21,24.156 c -12.6,-15.047 -29.06,-27.656 -53.21,-27.656 -36.4,0 -66.85,25.906 -66.85,81.558 0,60.559 35.35,89.961 75.6,89.961 16.81,0 31.51,-3.148 43.06,-8.398 v 87.508 l 23.11,4.203 V 139.172 h -17.5"
         style="fill:#ffffff;fill-opacity:1;fill-rule:nonzero;stroke:none"
         id="path96" />
      <path
         d="m 2442.32,139.172 -3.84,24.508 c -18.21,-16.11 -37.11,-28.008 -59.52,-28.008 -33.25,0 -49.35,19.258 -49.35,50.758 v 118.312 h 23.1 V 190.629 c 0,-21.348 9.81,-33.957 30.8,-33.957 17.5,0 35.36,10.508 53.56,28.359 v 119.711 h 23.1 v -165.57 h -17.85"
         style="fill:#ffffff;fill-opacity:1;fill-rule:nonzero;stroke:none"
         id="path98" />
      <path
         d="m 2575.59,135.672 c -42.35,0 -74.9,31.508 -74.9,86.109 0,55.66 33.61,86.461 76.31,86.461 22.4,0 40.25,-7.347 53.2,-16.801 l -3.84,-23.101 c -15.4,12.949 -30.81,19.949 -50.06,19.949 -30.11,0 -52.16,-23.801 -52.16,-66.16 0,-41.649 22.4,-66.149 53.55,-66.149 17.51,0 33.96,5.25 50.77,19.598 l 3.14,-21.348 c -15.4,-11.91 -33.25,-18.558 -56.01,-18.558"
         style="fill:#ffffff;fill-opacity:1;fill-rule:nonzero;stroke:none"
         id="path100" />
      <path
         d="m 2766.66,227.039 c -65.11,-6.648 -83.3,-22.41 -83.3,-44.809 0,-17.851 12.24,-26.949 29.74,-26.949 17.86,0 37.47,9.797 53.56,24.848 z m 5.25,-87.867 -3.84,22.058 c -15.41,-14.359 -34.66,-25.558 -58.46,-25.558 -28.7,0 -49.36,15.758 -49.36,45.156 0,38.852 31.51,57.063 106.41,64.402 v 10.86 c 0,22.402 -13.3,31.848 -34.3,31.848 -19.61,0 -38.86,-5.95 -57.06,-14.7 l -3.14,20.653 c 19.25,8.398 38.15,14.351 61.6,14.351 36.76,0 55.65,-17.152 55.65,-51.101 V 139.172 h -17.5"
         style="fill:#ffffff;fill-opacity:1;fill-rule:nonzero;stroke:none"
         id="path102" />
      <path
         d="m 2887.97,136.371 c -25.9,0 -43.05,10.149 -43.05,40.609 v 108.161 h -25.56 v 19.601 h 25.56 v 57.406 l 22.74,3.852 v -61.258 h 38.16 l 3.15,-19.601 h -41.31 V 180.828 c 0,-16.797 6.66,-24.156 24.52,-24.156 5.24,0 11.54,1.047 15.4,1.758 l 3.49,-19.258 c -4.9,-1.402 -13.3,-2.801 -23.1,-2.801"
         style="fill:#ffffff;fill-opacity:1;fill-rule:nonzero;stroke:none"
         id="path104" />
      <path
         d="m 2946.69,139.172 v 165.57 h 22.75 v -165.57 z m 11.55,205.125 c -9.1,0 -16.81,7.699 -16.81,16.801 0,9.101 7.71,16.8 16.81,16.8 9.1,0 16.46,-7.699 16.46,-16.8 0,-9.102 -7.36,-16.801 -16.46,-16.801"
         style="fill:#ffffff;fill-opacity:1;fill-rule:nonzero;stroke:none"
         id="path106" />
      <path
         d="m 3083.93,288.645 c -30.81,0 -50.76,-25.207 -50.76,-66.864 0,-40.25 20.66,-66.5 50.76,-66.5 31.16,0 51.45,25.199 51.45,66.5 0,40.606 -20.29,66.864 -51.45,66.864 z m 0,-152.973 c -42.35,0 -74.2,31.508 -74.2,86.109 0,54.957 32.54,86.461 74.2,86.461 43.05,0 75.26,-31.504 75.26,-86.461 0,-54.601 -32.91,-86.109 -75.26,-86.109"
         style="fill:#ffffff;fill-opacity:1;fill-rule:nonzero;stroke:none"
         id="path108" />
      <path
         d="m 3307.16,139.172 v 114.113 c 0,21.356 -9.81,34.309 -30.8,34.309 -17.5,0 -35.36,-10.856 -53.56,-28.707 V 139.172 h -23.1 v 165.57 h 17.85 l 3.85,-24.504 c 18.2,16.106 37.1,28.004 59.51,28.004 32.9,0 49.35,-18.902 49.35,-50.758 V 139.172 h -23.1"
         style="fill:#ffffff;fill-opacity:1;fill-rule:nonzero;stroke:none"
         id="path110" />
      <path
         d="m 3557.75,227.039 c -65.1,-6.648 -83.31,-22.41 -83.31,-44.809 0,-17.851 12.26,-26.949 29.76,-26.949 17.85,0 37.45,9.797 53.55,24.848 z m 5.26,-87.867 -3.85,22.058 c -15.41,-14.359 -34.66,-25.558 -58.46,-25.558 -28.71,0 -49.35,15.758 -49.35,45.156 0,38.852 31.5,57.063 106.4,64.402 v 10.86 c 0,22.402 -13.3,31.848 -34.3,31.848 -19.6,0 -38.85,-5.95 -57.05,-14.7 l -3.16,20.653 c 19.26,8.398 38.16,14.351 61.61,14.351 36.75,0 55.66,-17.152 55.66,-51.101 V 139.172 h -17.5"
         style="fill:#ffffff;fill-opacity:1;fill-rule:nonzero;stroke:none"
         id="path112" />
      <path
         d="m 3736.46,139.172 v 114.113 c 0,21.356 -9.8,34.309 -30.8,34.309 -17.5,0 -35.35,-10.856 -53.55,-28.707 V 139.172 H 3629 v 165.57 h 17.85 l 3.85,-24.504 c 18.21,16.106 37.11,28.004 59.51,28.004 32.9,0 49.36,-18.902 49.36,-50.758 V 139.172 h -23.11"
         style="fill:#ffffff;fill-opacity:1;fill-rule:nonzero;stroke:none"
         id="path114" />
      <path
         d="m 3917.66,277.441 c -12.95,6.653 -25.2,9.801 -42.36,9.801 -29.74,0 -52.85,-22.402 -52.85,-68.961 0,-40.25 19.25,-61.953 45.51,-61.953 19.6,0 35,11.902 49.7,29.75 z m 5.6,-138.269 -4.2,24.156 c -12.61,-15.047 -29.05,-27.656 -53.2,-27.656 -36.41,0 -66.87,25.906 -66.87,81.558 0,60.559 35.36,89.961 75.62,89.961 16.8,0 31.5,-3.148 43.05,-8.398 v 87.508 l 23.1,4.203 V 139.172 h -17.5"
         style="fill:#ffffff;fill-opacity:1;fill-rule:nonzero;stroke:none"
         id="path116" />
      <path
         d="m 4177.01,363.551 c -50.75,0 -84.01,-42.008 -84.01,-103.262 0,-61.961 33.6,-103.961 84.36,-103.961 50.75,0 84.01,42 84.01,103.258 0,61.957 -33.61,103.965 -84.36,103.965 z m -0.35,-228.93 c -64.41,0 -108.52,51.109 -108.52,124.965 0,74.207 44.81,125.664 109.22,125.664 65.11,0 108.86,-51.105 108.86,-124.961 0,-73.859 -44.45,-125.668 -109.56,-125.668"
         style="fill:#ffffff;fill-opacity:1;fill-rule:nonzero;stroke:none"
         id="path118" />
      <path
         d="m 4444.4,139.172 -3.84,24.508 c -18.21,-16.11 -37.1,-28.008 -59.51,-28.008 -33.26,0 -49.35,19.258 -49.35,50.758 v 118.312 h 23.09 V 190.629 c 0,-21.348 9.81,-33.957 30.81,-33.957 17.5,0 35.36,10.508 53.56,28.359 v 119.711 h 23.09 v -165.57 h -17.85"
         style="fill:#ffffff;fill-opacity:1;fill-rule:nonzero;stroke:none"
         id="path120" />
      <path
         d="m 4563.15,136.371 c -25.9,0 -43.05,10.149 -43.05,40.609 v 108.161 h -25.55 v 19.601 h 25.55 v 57.406 L 4542.85,366 V 304.742 H 4581 l 3.16,-19.601 h -41.31 V 180.828 c 0,-16.797 6.65,-24.156 24.5,-24.156 5.26,0 11.56,1.047 15.4,1.758 l 3.51,-19.258 c -4.9,-1.402 -13.3,-2.801 -23.11,-2.801"
         style="fill:#ffffff;fill-opacity:1;fill-rule:nonzero;stroke:none"
         id="path122" />
      <path
         d="M 4643.83,243.129 V 139.172 h -23.11 v 165.57 h 17.15 l 5.25,-33.957 c 12.25,18.555 31.51,36.758 58.81,37.457 l 3.85,-21.703 c -27.3,-1.75 -50.75,-21.348 -61.95,-43.41"
         style="fill:#ffffff;fill-opacity:1;fill-rule:nonzero;stroke:none"
         id="path124" />
      <path
         d="m 4747.18,238.578 h 90.65 c -2.1,29.762 -16.8,51.113 -43.75,51.113 -24.15,0 -42.35,-17.851 -46.9,-51.113 z m 50.75,-102.906 c -43.4,0 -74.55,29.406 -74.55,86.457 0,53.207 30.1,86.113 71.05,86.113 44.81,0 67.21,-37.105 67.21,-82.961 v -4.89 h -115.17 c 0.71,-40.961 19.6,-64.77 52.86,-64.77 22.06,0 41.3,9.809 58.46,24.508 l 3.5,-21 c -16.46,-14 -37.8,-23.457 -63.36,-23.457"
         style="fill:#ffffff;fill-opacity:1;fill-rule:nonzero;stroke:none"
         id="path126" />
      <path
         d="m 4997.7,227.039 c -65.1,-6.648 -83.31,-22.41 -83.31,-44.809 0,-17.851 12.26,-26.949 29.76,-26.949 17.85,0 37.45,9.797 53.55,24.848 z m 5.26,-87.867 -3.85,22.058 c -15.41,-14.359 -34.66,-25.558 -58.46,-25.558 -28.71,0 -49.35,15.758 -49.35,45.156 0,38.852 31.5,57.063 106.4,64.402 v 10.86 c 0,22.402 -13.3,31.848 -34.3,31.848 -19.6,0 -38.85,-5.95 -57.05,-14.7 l -3.16,20.653 c 19.26,8.398 38.16,14.351 61.61,14.351 36.75,0 55.66,-17.152 55.66,-51.101 V 139.172 h -17.5"
         style="fill:#ffffff;fill-opacity:1;fill-rule:nonzero;stroke:none"
         id="path128" />
      <path
         d="m 5134.45,135.672 c -42.35,0 -74.9,31.508 -74.9,86.109 0,55.66 33.59,86.461 76.3,86.461 22.4,0 40.25,-7.347 53.21,-16.801 l -3.86,-23.101 c -15.4,12.949 -30.8,19.949 -50.04,19.949 -30.11,0 -52.16,-23.801 -52.16,-66.16 0,-41.649 22.4,-66.149 53.55,-66.149 17.5,0 33.96,5.25 50.75,19.598 l 3.16,-21.348 c -15.4,-11.91 -33.25,-18.558 -56.01,-18.558"
         style="fill:#ffffff;fill-opacity:1;fill-rule:nonzero;stroke:none"
         id="path130" />
      <path
         d="m 5335.59,139.172 v 114.113 c 0,21.356 -9.8,34.309 -30.8,34.309 -17.5,0 -35.35,-10.856 -53.55,-28.707 V 139.172 h -23.11 v 247.129 l 23.11,4.203 V 281.289 c 17.15,15.055 35.7,26.953 58.1,26.953 32.91,0 49.36,-18.902 49.36,-50.406 V 139.172 h -23.11"
         style="fill:#ffffff;fill-opacity:1;fill-rule:nonzero;stroke:none"
         id="path132" />
    </g>
  </g>
</svg>
